<svg width="4666" height="13808" version="1.1" preserveAspectRatio="xMidYMid meet" xmlns="http://www.w3.org/2000/svg" xmlns:xlink="http://www.w3.org/1999/xlink" viewBox="-167.25 0 1334.501 1000" style="cursor: pointer;"><defs><g transform="matrix(2.198, 0, 0, 2.198, 30.83, 412.144)" fill="none" stroke="none" stroke-width="1" id="def-4d6b82ae-7f49-43a7-a6a0-3a57be8bc82c"><g transform="translate(-10.476, -5.027)"><g></g><g><path fill="#fff" d=" M65.193,33.312 c-0.79 -0.206 -1.615 -0.329 -2.467 -0.329 c-5.402,0 -9.779,4.377 -9.779,9.777 c0,2.422,0.887,4.635,2.346,6.342 c0.385 -0.466,0.957 -0.765,1.607 -0.765 c1.159,0,2.1,0.94,2.1,2.098 c0,0.446 -0.14,0.854 -0.373,1.191 c1.248,0.58,2.632,0.907,4.1,0.907 c5.397,0,9.774 -4.374,9.774 -9.773 c0 -2.027 -0.618 -3.91 -1.677 -5.472 c-0.126,2.128 -1.875,3.821 -4.035,3.821 c-2.246,0 -4.062 -1.818 -4.062 -4.063 C62.727,35.371,63.741,33.934,65.193,33.312 z"></path><path fill="#fff" d=" M27.199,52.197 c5.399,0,9.775 -4.377,9.775 -9.776 c0 -2.027 -0.616 -3.911 -1.673 -5.471 c-0.126,2.127 -1.877,3.821 -4.038,3.821 c-2.244,0 -4.064 -1.818 -4.064 -4.061 c0 -1.679,1.018 -3.118,2.469 -3.738 c-0.791 -0.207 -1.615 -0.326 -2.469 -0.326 c-5.399,0 -9.775,4.374 -9.775,9.774 c0,2.423,0.886,4.635,2.344,6.343 c0.386 -0.467,0.958 -0.767,1.609 -0.767 c1.16,0,2.099,0.94,2.099,2.101 c0,0.442 -0.139,0.854 -0.372,1.191 C24.35,51.866,25.735,52.197,27.199,52.197 z"></path><path fill="#fff" d=" M57.217,14.396 c0.549 -0.886,0.867 -1.927,0.867 -3.045 c0 -3.216 -2.608 -5.824 -5.823 -5.824 c-1.999,0 -3.76,1.005 -4.81,2.539 c-0.888 -0.965 -2.158 -1.573 -3.572 -1.573 c-2.067,0 -3.829,1.291 -4.531,3.109 c-0.644 -1.286 -1.972 -2.173 -3.51 -2.173 c-2.167,0 -3.924,1.756 -3.924,3.923 c0,1.156,0.502,2.189,1.296,2.908 c-12.979,3.91 -22.232,14.584 -22.232,31.083 c0,21.172,15.231,38.333,34.023,38.333 c18.789,0,34.023 -17.161,34.023 -38.333 C79.023,29.027,69.971,18.411,57.217,14.396 z M14.055,42.421 c0 -7.26,5.885 -13.144,13.144 -13.144 c7.26,0,13.146,5.884,13.146,13.144 c0,7.259 -5.885,13.146 -13.146,13.146 C19.94,55.566,14.055,49.68,14.055,42.421 z M48.273,74.917 c-2.002,5.043 -8.683,7.12 -14.919,4.643 c-6.237 -2.479 -9.67 -8.574 -7.667 -13.616 c0.463 -1.162,1.18 -2.157,2.075 -2.986 c3.035,1.765,6.487,3.446,10.227,4.932 c3.741,1.487,7.405,2.634,10.825,3.435 C48.896,72.536,48.735,73.756,48.273,74.917 z M76.146,42.421 c0,7.259 -5.886,13.146 -13.147,13.146 c-7.26,0 -13.143 -5.887 -13.143 -13.146 c0 -7.26,5.883 -13.144,13.143 -13.144 C70.261,29.277,76.146,35.161,76.146,42.421 z"></path></g></g></g><path d="M279.976,492.219 L279.976,514.004 L271.42,514.004 L270.097,502.979 L230.407,502.979 L229.084,514.004 L220.529,514.004 L220.529,492.219 L227.056,492.219 Q227.673,491.248,229.084,487.897 Q230.496,484.545,231.907,478.415 Q233.318,472.285,234.288,463.069 Q235.258,453.852,235.17,441.239 L235.17,441.239 L272.126,441.239 L272.126,492.219 L279.976,492.219 Z M239.845,492.219 L260.043,492.219 L260.043,451.999 L246.372,451.999 Q245.842,467.699,243.858,477.71 Q241.873,487.72,239.845,492.219 L239.845,492.219 Z M295.234,480.929 L295.234,480.929 Q295.234,469.728,300.703,463.686 Q306.171,457.644,316.05,457.644 L316.05,457.644 Q321.342,457.644,325.222,459.32 Q329.103,460.996,331.661,464.039 Q334.219,467.082,335.498,471.403 Q336.777,475.725,336.777,480.929 L336.777,480.929 Q336.777,492.13,331.352,498.172 Q325.928,504.214,316.05,504.214 L316.05,504.214 Q310.758,504.214,306.877,502.538 Q302.996,500.862,300.394,497.819 Q297.792,494.776,296.513,490.455 Q295.234,486.133,295.234,480.929 Z M307.053,480.929 L307.053,480.929 Q307.053,483.84,307.582,486.309 Q308.112,488.779,309.17,490.631 Q310.228,492.483,311.948,493.497 Q313.668,494.512,316.05,494.512 L316.05,494.512 Q320.548,494.512,322.753,491.248 Q324.958,487.985,324.958,480.929 L324.958,480.929 Q324.958,474.843,322.929,471.095 Q320.901,467.346,316.05,467.346 L316.05,467.346 Q311.816,467.346,309.435,470.521 Q307.053,473.697,307.053,480.929 Z M354.946,458.879 L366.412,458.879 L366.412,468.934 Q366.412,471.668,366.632,473.652 Q366.853,475.637,367.514,476.916 Q368.176,478.195,369.366,478.812 Q370.557,479.43,372.498,479.43 L372.498,479.43 Q375.055,479.43,376.952,478.812 Q378.848,478.195,380.083,477.313 L380.083,477.313 L380.083,458.879 L391.549,458.879 L391.549,502.979 L380.083,502.979 L380.083,485.692 Q378.76,486.662,376.026,487.853 Q373.291,489.043,368.705,489.043 L368.705,489.043 Q365.442,489.043,362.884,488.338 Q360.326,487.632,358.562,485.868 Q356.798,484.104,355.872,481.194 Q354.946,478.283,354.946,473.873 L354.946,473.873 L354.946,458.879 Z M439.265,502.979 L428.505,484.722 L425.418,484.722 L425.418,502.979 L413.952,502.979 L413.952,458.879 L425.418,458.879 L425.418,477.666 L428.152,476.431 L438.471,458.879 L450.731,458.879 L440.059,475.637 L435.561,478.989 L440.5,482.428 L452.407,502.979 L439.265,502.979 Z M495.978,502.979 L495.978,482.869 L496.419,476.607 L496.154,476.607 L492.361,483.046 L476.662,502.979 L469.429,502.979 L469.429,458.879 L480.895,458.879 L480.895,479.871 L480.366,485.868 L480.719,485.868 L484.335,479.606 L500.211,458.879 L507.444,458.879 L507.444,502.979 L495.978,502.979 Z M602.964,490.543 L605.434,500.421 Q602.611,502.45,598.245,503.332 Q593.88,504.214,589.293,504.214 L589.293,504.214 Q583.737,504.214,578.753,502.494 Q573.77,500.774,569.977,496.937 Q566.185,493.101,563.936,486.971 Q561.687,480.841,561.687,472.109 L561.687,472.109 Q561.687,463.024,564.2,456.895 Q566.714,450.765,570.727,447.016 Q574.74,443.268,579.679,441.636 Q584.619,440.004,589.558,440.004 L589.558,440.004 Q594.85,440.004,598.51,440.71 Q602.17,441.415,604.552,442.386 L604.552,442.386 L602.17,452.617 Q600.142,451.647,597.363,451.206 Q594.585,450.765,590.616,450.765 L590.616,450.765 Q583.296,450.765,578.841,455.968 Q574.387,461.172,574.387,472.109 L574.387,472.109 Q574.387,476.872,575.446,480.797 Q576.504,484.722,578.665,487.5 Q580.826,490.278,584.045,491.822 Q587.265,493.365,591.498,493.365 L591.498,493.365 Q595.467,493.365,598.201,492.571 Q600.936,491.778,602.964,490.543 L602.964,490.543 Z M636.48,482.781 L636.48,493.365 Q639.126,493.894,641.507,493.894 L641.507,493.894 Q645.476,493.894,647.064,492.439 Q648.652,490.984,648.652,487.897 L648.652,487.897 Q648.652,485.074,647.064,483.619 Q645.476,482.164,641.772,482.164 L641.772,482.164 Q638.861,482.164,636.48,482.781 L636.48,482.781 Z M636.48,458.879 L636.48,474.579 Q638.597,474.226,640.758,474.093 Q642.919,473.961,644.683,473.961 L644.683,473.961 Q649.181,473.961,652.18,474.975 Q655.178,475.99,657.031,477.842 Q658.883,479.694,659.677,482.208 Q660.47,484.722,660.47,487.632 L660.47,487.632 Q660.47,491.601,659.412,494.6 Q658.354,497.599,655.972,499.583 Q653.591,501.568,649.798,502.582 Q646.006,503.596,640.449,503.596 L640.449,503.596 Q635.422,503.596,631.761,503.42 Q628.101,503.244,625.014,502.979 L625.014,502.979 L625.014,458.879 L636.48,458.879 Z M665.498,502.979 L665.498,458.879 L676.964,458.879 L676.964,502.979 L665.498,502.979 Z M725.209,502.979 L725.209,485.604 L710.833,485.604 L710.833,502.979 L699.367,502.979 L699.367,458.879 L710.833,458.879 L710.833,475.461 L725.209,475.461 L725.209,458.879 L736.675,458.879 L736.675,502.979 L725.209,502.979 Z M756.961,480.929 L756.961,480.929 Q756.961,469.728,762.43,463.686 Q767.898,457.644,777.776,457.644 L777.776,457.644 Q783.068,457.644,786.949,459.32 Q790.83,460.996,793.388,464.039 Q795.946,467.082,797.225,471.403 Q798.503,475.725,798.503,480.929 L798.503,480.929 Q798.503,492.13,793.079,498.172 Q787.655,504.214,777.776,504.214 L777.776,504.214 Q772.484,504.214,768.604,502.538 Q764.723,500.862,762.121,497.819 Q759.519,494.776,758.24,490.455 Q756.961,486.133,756.961,480.929 Z M768.78,480.929 L768.78,480.929 Q768.78,483.84,769.309,486.309 Q769.838,488.779,770.897,490.631 Q771.955,492.483,773.675,493.497 Q775.395,494.512,777.776,494.512 L777.776,494.512 Q782.275,494.512,784.48,491.248 Q786.685,487.985,786.685,480.929 L786.685,480.929 Q786.685,474.843,784.656,471.095 Q782.627,467.346,777.776,467.346 L777.776,467.346 Q773.543,467.346,771.161,470.521 Q768.78,473.697,768.78,480.929 Z M816.673,458.879 L828.139,458.879 L828.139,468.934 Q828.139,471.668,828.359,473.652 Q828.58,475.637,829.241,476.916 Q829.903,478.195,831.093,478.812 Q832.284,479.43,834.224,479.43 L834.224,479.43 Q836.782,479.43,838.678,478.812 Q840.575,478.195,841.81,477.313 L841.81,477.313 L841.81,458.879 L853.276,458.879 L853.276,502.979 L841.81,502.979 L841.81,485.692 Q840.487,486.662,837.752,487.853 Q835.018,489.043,830.432,489.043 L830.432,489.043 Q827.168,489.043,824.611,488.338 Q822.053,487.632,820.289,485.868 Q818.525,484.104,817.599,481.194 Q816.673,478.283,816.673,473.873 L816.673,473.873 L816.673,458.879 Z M900.992,502.979 L890.231,484.722 L887.144,484.722 L887.144,502.979 L875.678,502.979 L875.678,458.879 L887.144,458.879 L887.144,477.666 L889.879,476.431 L900.198,458.879 L912.458,458.879 L901.786,475.637 L897.287,478.989 L902.227,482.428 L914.134,502.979 L900.992,502.979 Z M957.704,502.979 L957.704,482.869 L958.145,476.607 L957.881,476.607 L954.088,483.046 L938.389,502.979 L931.156,502.979 L931.156,458.879 L942.622,458.879 L942.622,479.871 L942.093,485.868 L942.446,485.868 L946.062,479.606 L961.938,458.879 L969.17,458.879 L969.17,502.979 L957.704,502.979 Z" id="def-9ebafd7c-7ed3-42f9-b74d-d309811b4adc"></path><path d="M239.397,552.324 L241.542,552.324 L241.542,560.648 L239.569,560.648 L239.054,554.427 L223.049,554.427 L222.534,560.648 L220.56,560.648 L220.56,552.324 L221.976,552.324 Q223.135,551.509,223.779,550.543 Q224.422,549.578,224.937,547.282 Q225.452,544.987,225.752,540.61 L225.752,540.61 L226.353,531.986 L239.397,531.986 L239.397,552.324 Z M236.865,552.324 L236.865,534.045 L228.67,534.045 L228.198,540.31 Q227.941,544.515,227.469,546.853 Q226.997,549.192,226.267,550.35 Q225.538,551.509,224.336,552.324 L224.336,552.324 L236.865,552.324 Z M268.703,542.369 Q268.703,543.313,268.617,544.172 L268.617,544.172 L253.642,544.172 Q253.857,548.548,255.724,550.672 Q257.59,552.796,260.636,552.796 L260.636,552.796 Q262.396,552.796,263.747,552.26 Q265.099,551.723,266.686,550.565 L266.686,550.565 L267.845,552.152 Q266.172,553.526,264.412,554.212 Q262.653,554.899,260.508,554.899 L260.508,554.899 Q256.045,554.899,253.514,551.852 Q250.982,548.806,250.982,543.399 L250.982,543.399 Q250.982,539.838,252.076,537.156 Q253.17,534.474,255.209,532.994 Q257.247,531.514,259.95,531.514 L259.95,531.514 Q264.241,531.514,266.472,534.41 Q268.703,537.306,268.703,542.369 L268.703,542.369 Z M266.257,542.241 L266.257,541.597 Q266.257,537.821,264.691,535.697 Q263.125,533.573,260.036,533.573 L260.036,533.573 Q257.247,533.573,255.53,535.719 Q253.814,537.864,253.642,542.241 L253.642,542.241 L266.257,542.241 Z M275.869,531.986 L293.847,531.986 L293.547,534.131 L286.081,534.131 L286.081,554.427 L283.592,554.427 L283.592,534.131 L275.869,534.131 L275.869,531.986 Z M310.624,531.514 Q312.555,531.514,314.057,532.05 Q315.559,532.586,316.975,533.788 L316.975,533.788 L315.73,535.418 Q314.615,534.517,313.435,534.088 Q312.255,533.659,310.753,533.659 L310.753,533.659 Q307.578,533.659,305.69,536.126 Q303.802,538.594,303.802,543.313 L303.802,543.313 Q303.802,547.99,305.668,550.35 Q307.535,552.71,310.71,552.71 L310.71,552.71 Q312.212,552.71,313.435,552.238 Q314.658,551.766,315.902,550.822 L315.902,550.822 L317.103,552.496 Q314.271,554.899,310.667,554.899 L310.667,554.899 Q307.792,554.899,305.647,553.526 Q303.501,552.152,302.321,549.557 Q301.142,546.961,301.142,543.356 L301.142,543.356 Q301.142,539.795,302.321,537.113 Q303.501,534.431,305.647,532.973 Q307.792,531.514,310.624,531.514 L310.624,531.514 Z M339.587,531.986 L342.333,531.986 L335.296,542.369 L343.406,554.427 L340.488,554.427 L333.194,543.485 L329.847,543.485 L329.847,554.427 L327.358,554.427 L327.358,531.986 L329.847,531.986 L329.847,541.511 L333.237,541.511 L339.587,531.986 Z M367.005,549.449 Q367.005,551.208,367.456,551.981 Q367.906,552.753,368.893,553.139 L368.893,553.139 L368.335,554.899 Q366.791,554.598,365.954,553.74 Q365.117,552.882,364.86,551.123 L364.86,551.123 Q362.543,554.899,357.866,554.899 L357.866,554.899 Q354.648,554.899,352.781,553.075 Q350.915,551.251,350.915,548.205 L350.915,548.205 Q350.915,544.729,353.382,542.841 Q355.849,540.953,360.226,540.953 L360.226,540.953 L364.517,540.953 L364.517,538.765 Q364.517,536.062,363.315,534.839 Q362.114,533.616,359.325,533.616 L359.325,533.616 Q356.75,533.616,353.232,534.903 L353.232,534.903 L352.588,533.016 Q356.364,531.514,359.668,531.514 L359.668,531.514 Q367.005,531.514,367.005,538.636 L367.005,538.636 L367.005,549.449 Z M358.295,552.882 Q362.328,552.882,364.517,548.934 L364.517,548.934 L364.517,542.756 L360.612,542.756 Q357.179,542.756,355.377,544.086 Q353.575,545.416,353.575,548.076 L353.575,548.076 Q353.575,550.393,354.819,551.638 Q356.064,552.882,358.295,552.882 L358.295,552.882 Z M387.386,531.986 L394.466,531.986 L394.466,554.427 L391.978,554.427 L391.978,545.158 L385.97,545.158 L380.779,554.427 L377.99,554.427 L383.568,544.644 Q381.294,543.914,380.156,542.369 Q379.019,540.825,379.019,538.594 L379.019,538.594 Q379.019,535.375,381.208,533.681 Q383.396,531.986,387.386,531.986 L387.386,531.986 Z M387,543.185 L391.978,543.185 L391.978,534.002 L387.344,534.002 Q384.597,533.96,383.117,535.097 Q381.637,536.234,381.637,538.551 L381.637,538.551 Q381.637,543.185,387,543.185 L387,543.185 Z M431.839,531.514 Q436.301,531.514,438.812,534.582 Q441.322,537.65,441.322,543.142 L441.322,543.142 Q441.322,548.591,438.769,551.745 Q436.216,554.899,431.796,554.899 L431.796,554.899 Q427.334,554.899,424.824,551.788 Q422.313,548.677,422.313,543.228 L422.313,543.228 Q422.313,539.666,423.472,537.006 Q424.63,534.346,426.776,532.93 Q428.921,531.514,431.839,531.514 L431.839,531.514 Z M431.839,533.616 Q428.578,533.616,426.776,536.062 Q424.974,538.508,424.974,543.228 L424.974,543.228 Q424.974,547.905,426.754,550.35 Q428.535,552.796,431.796,552.796 L431.796,552.796 Q435.057,552.796,436.881,550.35 Q438.704,547.905,438.704,543.142 L438.704,543.142 Q438.704,538.465,436.924,536.041 Q435.143,533.616,431.839,533.616 L431.839,533.616 Z M467.453,552.324 L469.598,552.324 L469.598,560.648 L467.624,560.648 L467.109,554.427 L451.105,554.427 L450.59,560.648 L448.616,560.648 L448.616,552.324 L450.032,552.324 Q451.19,551.509,451.834,550.543 Q452.478,549.578,452.993,547.282 Q453.508,544.987,453.808,540.61 L453.808,540.61 L454.409,531.986 L467.453,531.986 L467.453,552.324 Z M464.921,552.324 L464.921,534.045 L456.726,534.045 L456.254,540.31 Q455.996,544.515,455.524,546.853 Q455.052,549.192,454.323,550.35 Q453.593,551.509,452.392,552.324 L452.392,552.324 L464.921,552.324 Z M496.759,542.369 Q496.759,543.313,496.673,544.172 L496.673,544.172 L481.698,544.172 Q481.913,548.548,483.779,550.672 Q485.646,552.796,488.692,552.796 L488.692,552.796 Q490.451,552.796,491.803,552.26 Q493.154,551.723,494.742,550.565 L494.742,550.565 L495.901,552.152 Q494.227,553.526,492.468,554.212 Q490.709,554.899,488.563,554.899 L488.563,554.899 Q484.101,554.899,481.569,551.852 Q479.038,548.806,479.038,543.399 L479.038,543.399 Q479.038,539.838,480.132,537.156 Q481.226,534.474,483.264,532.994 Q485.302,531.514,488.005,531.514 L488.005,531.514 Q492.296,531.514,494.527,534.41 Q496.759,537.306,496.759,542.369 L496.759,542.369 Z M494.313,542.241 L494.313,541.597 Q494.313,537.821,492.747,535.697 Q491.181,533.573,488.091,533.573 L488.091,533.573 Q485.302,533.573,483.586,535.719 Q481.87,537.864,481.698,542.241 L481.698,542.241 L494.313,542.241 Z M528.639,531.986 L531.171,531.986 L525.464,542.455 L532.158,554.427 L529.412,554.427 L523.447,543.571 L519.629,543.571 L519.629,554.427 L517.269,554.427 L517.269,543.571 L513.493,543.571 L507.443,554.427 L504.782,554.427 L511.476,542.455 L505.769,531.986 L508.344,531.986 L513.493,541.597 L517.269,541.597 L517.269,531.986 L519.629,531.986 L519.629,541.597 L523.447,541.597 L528.639,531.986 Z M556.744,552.324 L558.889,552.324 L558.889,560.648 L556.916,560.648 L556.401,554.427 L540.396,554.427 L539.881,560.648 L537.907,560.648 L537.907,552.324 L539.323,552.324 Q540.482,551.509,541.125,550.543 Q541.769,549.578,542.284,547.282 Q542.799,544.987,543.099,540.61 L543.099,540.61 L543.7,531.986 L556.744,531.986 L556.744,552.324 Z M554.212,552.324 L554.212,534.045 L546.017,534.045 L545.545,540.31 Q545.287,544.515,544.816,546.853 Q544.344,549.192,543.614,550.35 Q542.885,551.509,541.683,552.324 L541.683,552.324 L554.212,552.324 Z M584.076,549.449 Q584.076,551.208,584.527,551.981 Q584.977,552.753,585.964,553.139 L585.964,553.139 L585.406,554.899 Q583.862,554.598,583.025,553.74 Q582.188,552.882,581.931,551.123 L581.931,551.123 Q579.614,554.899,574.937,554.899 L574.937,554.899 Q571.719,554.899,569.852,553.075 Q567.986,551.251,567.986,548.205 L567.986,548.205 Q567.986,544.729,570.453,542.841 Q572.92,540.953,577.297,540.953 L577.297,540.953 L581.588,540.953 L581.588,538.765 Q581.588,536.062,580.386,534.839 Q579.185,533.616,576.396,533.616 L576.396,533.616 Q573.821,533.616,570.303,534.903 L570.303,534.903 L569.659,533.016 Q573.435,531.514,576.739,531.514 L576.739,531.514 Q584.076,531.514,584.076,538.636 L584.076,538.636 L584.076,549.449 Z M575.366,552.882 Q579.399,552.882,581.588,548.934 L581.588,548.934 L581.588,542.756 L577.683,542.756 Q574.25,542.756,572.448,544.086 Q570.646,545.416,570.646,548.076 L570.646,548.076 Q570.646,550.393,571.89,551.638 Q573.135,552.882,575.366,552.882 L575.366,552.882 Z" id="def-e263d121-23e3-46c2-8577-c08602caaff3"></path><mask id="mask-c126fc84-aca3-4a44-95e1-b16a6f82738f" x="23.242" y="404.556" maskUnits="userSpaceOnUse" stroke-width="0"><rect x="30.83" y="412.144" fill="#000"></rect><use xlink:href="#def-4d6b82ae-7f49-43a7-a6a0-3a57be8bc82c" fill="#fff" stroke="#fff"></use></mask><mask id="mask-821ff170-7040-4b8d-a2a9-46e9949a46f9" x="208.553" y="427.181" maskUnits="userSpaceOnUse" stroke-width="0"><use xlink:href="#def-9ebafd7c-7ed3-42f9-b74d-d309811b4adc" fill="#fff" stroke="#fff"></use></mask><mask id="mask-992455b5-6576-4b87-9b71-14c46f4b08b2" x="215.755" y="526.038" maskUnits="userSpaceOnUse" stroke-width="0"><use xlink:href="#def-e263d121-23e3-46c2-8577-c08602caaff3" fill="#fff" stroke="#fff"></use></mask></defs><rect id="background-d0867012-fd2e-4a60-be24-a2911dfd86da" x="-167.25" y="0" fill="#ffffff"></rect><g mask="url(#mask-c126fc84-aca3-4a44-95e1-b16a6f82738f)"><rect x="30.83" y="412.144" width="151.76" height="175.712" fill="#08bcff"></rect></g><g mask="url(#mask-821ff170-7040-4b8d-a2a9-46e9949a46f9)"><rect x="213.044" y="431.672" width="763.611" height="89.817" fill="#414d37"></rect></g><g mask="url(#mask-992455b5-6576-4b87-9b71-14c46f4b08b2)"><rect x="217.545" y="527.828" width="371.402" height="35.803" fill="#414d37"></rect></g><g opacity="0"></g><g opacity="1"></g></svg>